<?xml version="1.0" encoding="utf-8"?>
<!DOCTYPE svg PUBLIC "-//W3C//DTD SVG 1.0//EN" "http://www.w3.org/TR/2001/REC-SVG-20010904/DTD/svg10.dtd">
<svg version="1.0" xmlns="http://www.w3.org/2000/svg" width="151px" height="43px" viewBox="0 0 151 43" preserveAspectRatio="xMidYMid meet">
 <g fill="#ffffff">
  <path d="M0 21.39 l0 -21.39 75.50 0 75.50 0 0 21.39 0 21.39 -75.50 0 -75.50 0 0 -21.39z m83.84 14.48 c0.77 -0.20 1.34 -0.39 1.49 -0.51 0.06 -0.06 0.40 -0.28 0.75 -0.49 0.45 -0.28 0.95 -0.70 1.77 -1.53 1.23 -1.23 1.98 -2.21 2.53 -3.30 l0.33 -0.66 0.03 -1.20 0.03 -1.20 -3.13 0.02 -3.14 0.02 -0.06 0.90 c-0.03 0.49 -0.11 1.05 -0.18 1.26 -0.19 0.58 -0.64 1.10 -1.20 1.40 -0.47 0.24 -0.55 0.26 -1.27 0.26 -0.86 0 -1.52 -0.14 -1.97 -0.42 -0.47 -0.30 -0.86 -0.81 -1.03 -1.36 -0.14 -0.46 -0.15 -0.77 -0.16 -4.44 -0.01 -2.23 0.02 -4.06 0.06 -4.19 0.21 -0.70 0.70 -1.28 1.34 -1.60 0.70 -0.36 2.23 -0.42 2.93 -0.11 0.43 0.20 0.94 0.68 1.16 1.11 0.20 0.39 0.32 1.13 0.32 1.97 l0 0.64 3.15 0 3.15 0 -0.03 -1.12 -0.03 -1.12 -0.34 -0.67 c-1.13 -2.20 -3.22 -4.43 -5.06 -5.36 -0.24 -0.13 -0.76 -0.32 -1.14 -0.44 -0.67 -0.20 -0.75 -0.21 -2.42 -0.21 -1.37 0 -1.84 0.03 -2.27 0.13 -1.30 0.32 -2.22 0.88 -3.72 2.25 -1.66 1.51 -2.89 3.30 -3.30 4.81 -0.13 0.46 -0.14 0.87 -0.13 3.97 0.01 3.92 0.04 4.16 0.58 5.29 0.53 1.12 1.20 2.01 2.44 3.24 1.87 1.87 3.16 2.56 5.27 2.82 0.88 0.11 2.52 0.04 3.22 -0.14z m21.78 0.06 c0.46 -0.04 1.10 -0.10 1.44 -0.13 l0.61 -0.06 1.24 -1.29 c0.68 -0.72 1.95 -2.04 2.83 -2.94 l1.59 -1.64 0 -4.50 c0 -4.87 -0.01 -4.94 -0.44 -5.80 -0.50 -0.97 -1.07 -1.66 -3.12 -3.74 -1.50 -1.51 -1.71 -1.65 -2.96 -1.97 -1.02 -0.25 -1.81 -0.34 -3.19 -0.35 -2.38 -0.02 -3.85 0.20 -5.22 0.74 -0.61 0.24 -0.95 0.55 -2.51 2.21 -1.68 1.79 -2.14 2.37 -2.53 3.17 l-0.31 0.64 0 4.81 0 4.82 0.69 0.72 c0.38 0.40 1.55 1.63 2.60 2.73 1.05 1.10 2 2.08 2.09 2.19 0.15 0.17 0.28 0.19 1.62 0.29 2.58 0.20 4.27 0.24 5.58 0.11z m-67.87 -4.19 c0 -2.31 0.02 -4.22 0.06 -4.24 0.03 -0.02 0.75 -0.05 1.59 -0.06 l1.53 -0.03 0.83 2.08 c0.46 1.15 1.21 3.07 1.69 4.27 l0.86 2.18 3.25 0 c1.79 0 3.25 -0.02 3.25 -0.04 0 -0.02 -0.48 -1.13 -1.07 -2.46 -0.98 -2.21 -2.44 -5.53 -2.86 -6.51 -0.31 -0.74 -0.26 -0.81 0.94 -1.49 0.64 -0.36 1.60 -1.32 2.04 -2.04 1 -1.67 1.15 -3.74 0.39 -5.63 -0.34 -0.84 -0.73 -1.45 -1.40 -2.15 -0.93 -0.97 -2.08 -1.59 -3.55 -1.91 -0.62 -0.14 -1.12 -0.15 -7.55 -0.15 l-6.88 0 -0.02 11.09 c-0.01 6.10 0 11.14 0.02 11.19 0.02 0.07 0.79 0.09 3.46 0.09 l3.42 0 0 -4.20z m32.80 1.89 c0 -1.27 0.02 -2.42 0.05 -2.56 l0.05 -0.24 -5.29 -0.02 -5.30 -0.02 -0.02 -2.06 -0.02 -2.07 4.29 0 4.29 0 0 -2.28 0 -2.28 -4.26 -0.02 -4.27 -0.02 -0.02 -1.82 c-0.02 -1.68 -0.01 -1.82 0.12 -1.89 0.08 -0.04 2.45 -0.09 5.27 -0.11 l5.13 -0.04 0.02 -2.32 0.02 -2.32 -8.49 0 -8.49 0 -0.02 11.09 c-0.01 6.10 0 11.14 0.02 11.19 0.02 0.07 1.80 0.09 8.49 0.09 l8.45 0 0 -2.31z m54.97 -6.26 l0 -8.57 0.20 -0.08 c0.12 -0.05 1.83 -0.08 4.33 -0.08 l4.12 0 0 8.65 0 8.65 3.42 0 3.42 0 0 -8.56 c0 -6.55 0.02 -8.58 0.09 -8.65 0.07 -0.07 0.63 -0.09 2.04 -0.09 l1.95 0 0 -2.52 0 -2.52 -15.45 0 -15.45 0 0.02 2.50 0.02 2.49 2.23 0.02 2.22 0.02 0 8.60 c0 4.73 0.02 8.63 0.06 8.65 0.02 0.03 1.57 0.06 3.42 0.06 l3.37 0 0 -8.57z"/>
  <path d="M100.26 29.74 l-0.93 -1 0 -4.11 0 -4.12 0.88 -0.94 0.88 -0.94 2.06 0 2.06 0 0.87 0.95 0.87 0.94 0 4.09 0 4.09 -0.95 1.01 -0.95 1.02 -1.93 -0.01 -1.94 -0.01 -0.92 -0.99z"/>
  <path d="M37.79 23.02 c-0.02 -0.05 -0.03 -1.28 -0.02 -2.73 l0.02 -2.63 2.50 -0.02 c2.30 -0.02 2.53 -0.01 2.83 0.13 0.50 0.22 0.81 0.53 1.05 1.02 0.21 0.42 0.22 0.50 0.22 1.55 0 0.98 -0.02 1.14 -0.18 1.45 -0.28 0.56 -0.64 0.94 -1.07 1.15 -0.39 0.18 -0.44 0.19 -2.86 0.19 -1.90 0 -2.47 -0.02 -2.49 -0.10z"/>
 </g>
 <g fill="#0383c7">
  <path d="M80.38 36.25 c-2.11 -0.26 -3.40 -0.95 -5.27 -2.82 -1.23 -1.23 -1.90 -2.12 -2.44 -3.24 -0.55 -1.14 -0.57 -1.35 -0.58 -5.53 -0.01 -3.32 0.01 -3.75 0.13 -4.21 0.42 -1.50 1.64 -3.30 3.30 -4.81 1.50 -1.37 2.42 -1.92 3.72 -2.25 0.44 -0.11 0.91 -0.13 2.51 -0.13 1.93 -0.01 1.98 0 2.66 0.21 0.38 0.12 0.90 0.31 1.14 0.44 1.82 0.93 3.92 3.15 5.06 5.36 l0.35 0.67 0.02 1.35 0.03 1.36 -3.38 0 -3.37 0 -0.05 -0.96 c-0.06 -1.36 -0.31 -1.98 -1.03 -2.51 -0.53 -0.39 -1.06 -0.50 -1.86 -0.40 -0.39 0.05 -0.83 0.16 -1.01 0.25 -0.66 0.34 -1.16 0.92 -1.36 1.61 -0.03 0.13 -0.06 1.90 -0.06 3.95 0 3.46 0.02 3.74 0.16 4.21 0.35 1.14 1.35 1.79 2.76 1.79 0.70 0 1.38 -0.35 1.82 -0.91 0.40 -0.53 0.53 -0.95 0.60 -2.01 l0.06 -0.90 3.37 -0.02 3.37 -0.02 -0.02 1.43 -0.03 1.44 -0.34 0.67 c-0.55 1.09 -1.31 2.08 -2.53 3.30 -0.82 0.83 -1.32 1.25 -1.77 1.53 -0.35 0.21 -0.68 0.43 -0.75 0.49 -0.14 0.12 -0.71 0.31 -1.49 0.52 -0.69 0.18 -2.74 0.25 -3.70 0.13z"/>
  <path d="M101.73 36.20 c-0.26 -0.02 -1.12 -0.08 -1.92 -0.14 -1.34 -0.10 -1.47 -0.13 -1.62 -0.29 -0.09 -0.10 -1.04 -1.09 -2.09 -2.19 -1.05 -1.10 -2.23 -2.33 -2.60 -2.73 l-0.69 -0.72 0 -5.06 0 -5.05 0.31 -0.64 c0.39 -0.80 0.86 -1.38 2.53 -3.17 1.56 -1.66 1.90 -1.97 2.51 -2.21 1.41 -0.56 2.82 -0.75 5.46 -0.74 1.60 0.01 2.35 0.09 3.42 0.35 1.25 0.31 1.46 0.46 2.96 1.97 2.05 2.08 2.63 2.78 3.12 3.74 0.44 0.87 0.44 0.91 0.44 6.04 l0 4.73 -1.59 1.64 c-0.88 0.90 -2.15 2.23 -2.83 2.94 l-1.24 1.29 -0.61 0.06 c-0.34 0.03 -0.98 0.09 -1.44 0.13 -0.76 0.08 -3.02 0.09 -4.13 0.03z m4.04 -6.71 l0.95 -1.01 0 -3.85 0 -3.85 -0.87 -0.94 -0.87 -0.95 -1.82 0 -1.82 0 -0.88 0.94 -0.88 0.94 0 3.89 0 3.88 0.93 1 0.92 0.99 1.71 0.01 1.70 0.01 0.95 -1.02z"/>
  <path d="M30.63 36.08 c-0.02 -0.06 -0.03 -5.20 -0.02 -11.43 l0.02 -11.32 7.12 0 c6.65 0 7.16 0.01 7.79 0.15 1.46 0.32 2.62 0.94 3.55 1.91 1.27 1.34 1.88 2.89 1.88 4.82 0 1.86 -0.49 3.15 -1.68 4.45 -0.53 0.57 -1.01 0.94 -1.71 1.30 -0.68 0.34 -0.68 0.20 0.09 1.98 0.85 1.97 1.90 4.33 2.79 6.35 0.38 0.84 0.72 1.61 0.75 1.71 l0.07 0.17 -3.60 0 -3.60 0 -0.86 -2.18 c-0.48 -1.20 -1.23 -3.12 -1.69 -4.27 l-0.83 -2.08 -1.29 0.03 c-0.72 0.02 -1.32 0.04 -1.35 0.06 -0.04 0.02 -0.06 1.93 -0.06 4.24 l0 4.20 -3.66 0 c-2.85 0 -3.67 -0.02 -3.70 -0.09z m12.28 -13.39 c0.43 -0.20 0.79 -0.59 1.07 -1.15 0.15 -0.30 0.18 -0.49 0.18 -1.22 0 -0.72 -0.03 -0.93 -0.17 -1.22 -0.24 -0.52 -0.53 -0.83 -1 -1.06 l-0.42 -0.20 -2.27 0.02 -2.28 0.02 -0.02 2.40 c-0.01 1.32 0 2.44 0.02 2.49 0.02 0.08 0.54 0.10 2.26 0.10 2.17 0 2.23 -0.01 2.63 -0.19z"/>
  <path d="M53.36 36.08 c-0.02 -0.06 -0.03 -5.20 -0.02 -11.43 l0.02 -11.32 8.73 0 8.73 0 -0.02 2.56 -0.01 2.56 -5.14 0.04 c-2.82 0.02 -5.20 0.07 -5.28 0.11 -0.13 0.06 -0.14 0.19 -0.12 1.65 l0.02 1.58 4.27 0.02 4.26 0.02 0 2.52 0 2.52 -4.29 0 -4.29 0 0.02 1.83 0.02 1.82 5.19 0.02 c2.85 0.01 5.23 0.02 5.27 0.02 0.06 0 0.07 0.96 0.06 2.77 l-0.02 2.78 -8.69 0.02 c-6.91 0.02 -8.70 0 -8.72 -0.08z"/>
  <path d="M118.50 36.12 c-0.03 -0.02 -0.06 -3.92 -0.06 -8.65 l0 -8.60 -2.22 -0.02 -2.23 -0.02 -0.02 -2.73 -0.02 -2.74 15.69 0 15.69 0 0 2.75 0 2.75 -1.95 0 c-1.42 0 -1.97 0.02 -2.04 0.09 -0.07 0.07 -0.09 2.10 -0.09 8.65 l0 8.56 -3.66 0 -3.66 0 0 -8.65 0 -8.65 -3.89 0 c-2.34 0 -3.97 0.03 -4.09 0.08 l-0.20 0.08 0 8.57 0 8.57 -3.60 0 c-1.98 0 -3.63 -0.02 -3.66 -0.06z"/>
 </g>
</svg>